{"title":"Solo A Star Wars Story 2018 1080p BluRay x264 DTS [MW]","magnet":"magnet:?xt=urn:btih:4cfbd750001e28d4917860b0f233d884a22d0681&dn=Solo+A+Star+Wars+Story+2018+1080p+BluRay+x264+DTS+%5BMW%5D&tr=udp%3A%2F%2Ftracker.leechers-paradise.org%3A6969&tr=udp%3A%2F%2Fzer0day.ch%3A1337&tr=udp%3A%2F%2Fopen.demonii.com%3A1337&tr=udp%3A%2F%2Ftracker.coppersurfer.tk%3A6969&tr=udp%3A%2F%2Fexodus.desync.com%3A6969","uploader":"MFreaky","categoryP":"video","categoryS":"hd___movies","size":"4009886951","seeders":"0","leechers":"0","description":" <a href=\"https://pichub.site/image/DehTj\" rel=\"nofollow\" target=\"_NEW\">https://pichub.site/image/DehTj</a> <a href=\"\nhttps://pichub.site/image/Dezuk\" rel=\"nofollow\" target=\"_NEW\">\nhttps://pichub.site/image/Dezuk</a> <a href=\"\nhttps://pichub.site/image/De8sQ\" rel=\"nofollow\" target=\"_NEW\">\nhttps://pichub.site/image/De8sQ</a> <a href=\"\nhttps://pichub.site/image/DeBav\" rel=\"nofollow\" target=\"_NEW\">\nhttps://pichub.site/image/DeBav</a> <a href=\"\nhttps://pichub.site/image/DeK8d\" rel=\"nofollow\" target=\"_NEW\">\nhttps://pichub.site/image/DeK8d</a> <a href=\"\nhttps://pichub.site/image/Deg59\" rel=\"nofollow\" target=\"_NEW\">\nhttps://pichub.site/image/Deg59</a>\r\n\r\nIMDB <a href=\"\nhttps://www.imdb.com/title/tt3778644/\" rel=\"nofollow\" target=\"_NEW\">\nhttps://www.imdb.com/title/tt3778644/</a>\r\n\r\nVideo\r\nFormat                                   : AVC\r\nFormat/Info                              : Advanced Video Codec\r\nFormat profile                           : High@L4.1\r\nFormat settings                          : CABAC / 4 Ref Frames\r\nFormat settings, CABAC                   : Yes\r\nFormat settings, RefFrames               : 4 frames\r\nCodec ID                                 : V_MPEG4/ISO/AVC\r\nDuration                                 : 2 h 14 min\r\nBit rate                                 : 3 200 kb/s\r\nWidth                                    : 1 920 pixels\r\nHeight                                   : 804 pixels\r\nDisplay aspect ratio                     : 2.40:1\r\nFrame rate mode                          : Constant\r\nFrame rate                               : 23.976 (24000/1001) FPS\r\nColor space                              : YUV\r\nChroma subsampling                       : 4:2:0\r\nBit depth                                : 8 bits\r\nScan type                                : Progressive\r\nBits/(Pixel*Frame)                       : 0.086\r\nStream size                              : 3.02 GiB (81%)\r\nWriting library                          : x264 core 155 r2901 7d0ff22\r\n\r\nAudio\r\nFormat                                   : DTS\r\nFormat/Info                              : Digital Theater Systems\r\nCodec ID                                 : A_DTS\r\nDuration                                 : 2 h 14 min\r\nBit rate mode                            : Constant\r\nBit rate                                 : 756 kb/s\r\nChannel(s)                               : 6 channels\r\nChannel positions                        : Front: L C R, Side: L R, LFE\r\nSampling rate                            : 48.0 kHz\r\nFrame rate                               : 93.750 FPS (512 SPF)\r\nBit depth                                : 16 bits\r\nCompression mode                         : Lossy\r\nStream size                              : 729 MiB (19%)\r\nLanguage                                 : English","last_updated":"2018-09-12T12:08:26.735Z","parsed":{"xt":"urn:btih:4cfbd750001e28d4917860b0f233d884a22d0681","dn":"Solo A Star Wars Story 2018 1080p BluRay x264 DTS [MW]","tr":["udp://exodus.desync.com:6969","udp://open.demonii.com:1337","udp://tracker.coppersurfer.tk:6969","udp://tracker.leechers-paradise.org:6969","udp://zer0day.ch:1337"],"infoHash":"4cfbd750001e28d4917860b0f233d884a22d0681","infoHashBuffer":{"type":"Buffer","data":[76,251,215,80,0,30,40,212,145,120,96,176,242,51,216,132,162,45,6,129]},"name":"Solo A Star Wars Story 2018 1080p BluRay x264 DTS [MW]","announce":["udp://exodus.desync.com:6969","udp://open.demonii.com:1337","udp://tracker.coppersurfer.tk:6969","udp://tracker.leechers-paradise.org:6969","udp://zer0day.ch:1337"],"urlList":[]}}